<?xml version="1.0" encoding="utf-8"?>
<!-- Generator: Adobe Illustrator 23.0.3, SVG Export Plug-In . SVG Version: 6.00 Build 0)  -->
<svg version="1.1" id="Слой_1" xmlns="http://www.w3.org/2000/svg" xmlns:xlink="http://www.w3.org/1999/xlink" x="0px" y="0px"
	 viewBox="0 0 200 200" style="enable-background:new 0 0 200 200;" xml:space="preserve">
<style type="text/css">
	.st0{fill:#2C3E50;}
</style>
<path class="st0" d="M99,139.9l-31.8,17.6c-1.7,0.9-3.7-0.5-3.4-2.4l6.1-37.5c0.1-0.7-0.1-1.5-0.6-2l-26-26.7
	c-1.3-1.4-0.6-3.6,1.3-3.9l35.7-5.4c0.8-0.1,1.4-0.6,1.8-1.3L98,44.3c0.8-1.8,3.4-1.8,4.2,0l15.9,33.9c0.3,0.7,1,1.2,1.8,1.3
	l35.7,5.4c1.9,0.3,2.6,2.6,1.3,3.9l-26,26.7c-0.5,0.5-0.8,1.3-0.6,2l6.1,37.5c0.3,1.9-1.7,3.4-3.4,2.4l-31.7-17.5
	C100.5,139.5,99.7,139.5,99,139.9z"/>
</svg>
